<svg width="40" height="40" viewBox="0 0 40 40" fill="none" xmlns="http://www.w3.org/2000/svg">
<path d="M36.0751 8.50455L39.12 5.5965V4.95996H28.5719L21.0544 23.6401L12.5018 4.95996H1.44177V5.5965L4.9986 9.87128C5.34522 10.1872 5.52648 10.6491 5.48037 11.1142V27.9133C5.59008 28.5181 5.39292 29.1404 4.9668 29.5801L0.959999 34.4279V35.0565H12.3205V34.4199L8.31375 29.5801C7.87968 29.1388 7.67457 28.5276 7.76202 27.9133V13.3825L17.7345 35.0644H18.8936L27.4685 13.3825V30.6547C27.4685 31.1103 27.4685 31.2039 27.1696 31.5024L24.085 34.4818V35.12H39.05V34.4834L36.0767 31.577C35.816 31.3801 35.6808 31.0499 35.7365 30.7293V9.35221C35.6808 9.02997 35.8144 8.6998 36.0751 8.50455Z" fill="black"/>
</svg>
