<svg width="80" height="80" viewBox="0 0 80 80" fill="none" xmlns="http://www.w3.org/2000/svg">
<path d="M60.4167 26.2501C58.9583 25.4167 57.0833 25.4167 55.4167 26.2501L43.75 33.1251L35.8333 37.5001L24.375 44.3751C22.9167 45.2084 21.0417 45.2084 19.375 44.3751L10.4167 38.9584C8.95833 38.1251 7.91667 36.4584 7.91667 34.5834V24.1667C7.91667 22.5001 8.75 20.8334 10.4167 19.7917L19.375 14.5834C20.8333 13.7501 22.7083 13.7501 24.375 14.5834L33.3333 20.0001C34.7917 20.8334 35.8333 22.5001 35.8333 24.3751V31.2501L43.75 26.6667V19.5834C43.75 17.9167 42.9167 16.2501 41.25 15.2084L24.5833 5.41675C23.125 4.58341 21.25 4.58341 19.5833 5.41675L2.5 15.4167C0.833333 16.2501 0 17.9167 0 19.5834V39.1667C0 40.8334 0.833333 42.5001 2.5 43.5417L19.375 53.3334C20.8333 54.1667 22.7083 54.1667 24.375 53.3334L35.8333 46.6667L43.75 42.0834L55.2083 35.4167C56.6667 34.5834 58.5417 34.5834 60.2083 35.4167L69.1667 40.6251C70.625 41.4584 71.6667 43.1251 71.6667 45.0001V55.4167C71.6667 57.0834 70.8333 58.7501 69.1667 59.7917L60.4167 65.0001C58.9583 65.8334 57.0833 65.8334 55.4167 65.0001L46.4583 59.7917C45 58.9584 43.9583 57.2917 43.9583 55.4167V48.7501L36.0417 53.3334V60.2084C36.0417 61.8751 36.875 63.5417 38.5417 64.5834L55.4167 74.3751C56.875 75.2084 58.75 75.2084 60.4167 74.3751L77.2917 64.5834C78.75 63.7501 79.7917 62.0834 79.7917 60.2084V40.4167C79.7917 38.7501 78.9583 37.0834 77.2917 36.0417L60.4167 26.2501Z" fill="#8247E5"/>
</svg>
