<svg width="74" height="85" viewBox="0 0 74 85" fill="none" xmlns="http://www.w3.org/2000/svg">
    <path fill-rule="evenodd" clip-rule="evenodd" d="M37.0002 0L14.2822 13.0195L22.6344 17.8293L37.0002 9.61952L51.3657 17.8293L59.7179 13.0195L37.0002 0ZM51.3657 24.6294L59.7179 29.4391V39.0586L45.352 47.2683V63.688L37.0002 68.4978L28.6479 63.688V47.2683L14.2822 39.0586V29.4391L22.6344 24.6294L37.0002 32.839L51.3657 24.6294ZM59.7179 45.8586V55.4781L51.3657 60.2881V50.6682L59.7179 45.8586ZM51.2821 67.0878L65.6481 58.878V42.4585L74 37.6489V63.688L51.2821 76.7073V67.0878ZM65.6481 26.0391L57.2958 21.2293L65.6481 16.4195L74 21.2293V30.8489L65.6481 35.6587V26.0391ZM28.6479 80.1904V70.5709L37.0002 75.3805L45.352 70.5709V80.1904L37.0002 85L28.6479 80.1904ZM22.6344 60.2881L14.2822 55.4781V45.8586L22.6344 50.6682V60.2881ZM37.0002 26.0391L28.6479 21.2293L37.0002 16.4195L45.352 21.2293L37.0002 26.0391ZM16.7043 21.2293L8.35213 26.0391V35.6587L0 30.8489V21.2293L8.35213 16.4195L16.7043 21.2293ZM0 37.6489L8.35213 42.4585V58.878L22.7178 67.0878V76.7073L0 63.688V37.6489Z" fill="#F0B90B"/>
</svg>
