<svg width="80" height="80" viewBox="0 0 80 80" fill="none" xmlns="http://www.w3.org/2000/svg">
<g clip-path="url(#clip0)">
<path d="M12.9913 56.1615C13.4805 55.6692 14.1436 55.3927 14.8351 55.3927H78.6336C79.7958 55.3927 80.3775 56.8081 79.5554 57.6354L66.949 70.3211C66.4599 70.8134 65.7968 71.0897 65.1053 71.0897H1.30677C0.144561 71.0897 -0.437238 69.6745 0.384895 68.8472L12.9913 56.1615Z" fill="url(#paint0_linear)"/>
<path d="M12.9909 8.76868C13.4801 8.27648 14.1432 8 14.8347 8H78.6332C79.7954 8 80.3771 9.41533 79.555 10.2426L66.9486 22.9283C66.4595 23.4205 65.7964 23.697 65.1049 23.697H1.30637C0.144164 23.697 -0.437635 22.2816 0.384498 21.4544L12.9909 8.76868Z" fill="url(#paint1_linear)"/>
<path d="M66.949 32.3142C66.4599 31.8218 65.7968 31.5455 65.1053 31.5455H1.30677C0.144561 31.5455 -0.437238 32.9607 0.384895 33.788L12.9913 46.4737C13.4805 46.966 14.1436 47.2425 14.8351 47.2425H78.6336C79.7958 47.2425 80.3775 45.8271 79.5554 44.9998L66.949 32.3142Z" fill="url(#paint2_linear)"/>
</g>
<defs>
<linearGradient id="paint0_linear" x1="54.0444" y1="-9.30595" x2="9.39847" y2="75.6073" gradientUnits="userSpaceOnUse">
<stop stop-color="#00FFA3"/>
<stop offset="1" stop-color="#DC1FFF"/>
</linearGradient>
<linearGradient id="paint1_linear" x1="54.044" y1="-9.30587" x2="9.39814" y2="75.6074" gradientUnits="userSpaceOnUse">
<stop stop-color="#00FFA3"/>
<stop offset="1" stop-color="#DC1FFF"/>
</linearGradient>
<linearGradient id="paint2_linear" x1="54.0444" y1="-9.3059" x2="9.39852" y2="75.6073" gradientUnits="userSpaceOnUse">
<stop stop-color="#00FFA3"/>
<stop offset="1" stop-color="#DC1FFF"/>
</linearGradient>
<clipPath id="clip0">
<rect width="80" height="80" fill="white"/>
</clipPath>
</defs>
</svg>
